Coordinates
version=1
nRows=6
nColumns=36
inDegrees=yes

Units are S.I. units (second, meters, Newtons, ...)
If the header above contains a line with 'inDegrees', this indicates whether rotational values are in degrees (yes) or radians (no).

endheader
time	pelvis_tilt	pelvis_list	pelvis_rotation	pelvis_tx	pelvis_ty	pelvis_tz	hip_flexion_r	hip_adduction_r	hip_rotation_r	knee_angle_r	knee_angle_r_beta	ankle_angle_r	subtalar_angle_r	mtp_angle_r	hip_flexion_l	hip_adduction_l	hip_rotation_l	knee_angle_l	knee_angle_l_beta	ankle_angle_l	subtalar_angle_l	mtp_angle_l	lumbar_extension	lumbar_bending	lumbar_rotation	arm_flex_r	arm_add_r	arm_rot_r	elbow_flex_r	pro_sup_r	arm_flex_l	arm_add_l	arm_rot_l	elbow_flex_l	pro_sup_l
      0.00000000	     -5.42630156	      0.80138822	      5.24309385	     -0.13129778	      0.87626173	     -0.30141447	     36.30939977	     -3.44299259	      2.57054435	      6.20407323	      0.10828150	      7.32062140	     -5.88926021	     -5.06673896	    -10.91850143	      4.66237498	      8.41120046	      8.59997757	      0.15009792	     20.57618740	     -1.93642924	     -5.06673896	     -4.32737492	      0.35197020	    -16.04844988	    -13.42863159	    -13.42990775	     -4.13589203	     34.39950039	    102.87991827	      7.77636250	    -20.69021883	      2.35555491	     61.55772239	    101.82561708
      0.01000000	     -5.17023237	      0.73265084	      5.56992821	     -0.11754463	      0.87456018	     -0.30047548	     36.21750630	     -3.39273148	      2.09265629	      8.14356580	      0.14213204	      7.54262218	     -6.79024855	     -5.09128707	    -11.76632218	      4.31108063	      8.38232348	      9.29845075	      0.16228858	     20.47404066	     -1.94019780	     -5.09128707	     -4.47313036	      0.51768993	    -16.39715947	    -13.66795818	    -13.47444865	     -4.30319704	     34.39617962	    102.99015290	      7.67646653	    -20.53969466	      2.32177743	     61.64608492	    102.00032163
      0.02000000	     -4.96332022	      0.64169879	      5.87425362	     -0.10366240	      0.87281231	     -0.29946588	     36.14421206	     -3.30417948	      1.62699065	     10.03553720	      0.17515317	      7.61124127	     -7.63204258	     -5.11531546	    -12.54859853	      3.92726590	      8.32484791	     10.01272778	      0.17475507	     20.28347710	     -1.89695988	     -5.11531546	     -4.53925583	      0.71096755	    -16.71569668	    -13.92672377	    -13.52659701	     -4.50237773	     34.43486051	    103.09654727	      7.50960414	    -20.38748576	      2.31680662	     61.75227193	    102.17156606
      0.03000000	     -4.80346370	      0.52243197	      6.13765954	     -0.08955077	      0.87107943	     -0.29834476	     36.05728878	     -3.16066540	      1.17025971	     11.83171122	      0.20650232	      7.47441317	     -8.35988530	     -5.14102637	    -13.25780566	      3.50722241	      8.18860164	     10.76220541	      0.18783592	     19.96445370	     -1.81207144	     -5.14102637	     -4.52892494	      0.93192638	    -16.98507357	    -14.19917891	    -13.58021220	     -4.74470784	     34.51314019	    103.21010027	      7.25375678	    -20.20658227	      2.31455277	     61.85177082	    102.34895728
      0.04000000	     -4.70963888	      0.35375251	      6.32279648	     -0.07513682	      0.86941478	     -0.29697378	     35.94740770	     -2.91866060	      0.72019141	     13.44185887	      0.23460469	      7.02718323	     -8.91411873	     -5.17569716	    -13.86050065	      3.02715255	      7.93935169	     11.57841309	      0.20208143	     19.47849952	     -1.64514537	     -5.17569716	     -4.40992441	      1.19904772	    -17.17113337	    -14.50151131	    -13.59331723	     -5.07385974	     34.64891833	    103.36449805	      6.86585814	    -20.01639330	      2.26603311	     61.91797659	    102.57009765
      0.05000000	     -4.61315378	      0.16011074	      6.44115416	     -0.06047145	      0.86798008	     -0.29540363	     35.74073861	     -2.60102463	      0.26441608	     14.83432762	      0.25890786	      6.37927951	     -9.25502519	     -5.20126953	    -14.43289084	      2.51119421	      7.58043284	     12.43556408	      0.21704154	     18.80920381	     -1.50338607	     -5.20126953	     -4.27025363	      1.49935328	    -17.26186197	    -14.75194201	    -13.61415894	     -5.31977942	     34.73954644	    103.47464256	      6.42436074	    -19.77043028	      2.25399049	     61.89005486	    102.72167176
